<?xml version="1.0" encoding="UTF-8" standalone="no"?>
<!DOCTYPE svg PUBLIC "-//W3C//DTD SVG 1.1//EN" "http://www.w3.org/Graphics/SVG/1.1/DTD/svg11.dtd">
<svg width="100%" height="100%" viewBox="0 0 1080 1080" version="1.1" xmlns="http://www.w3.org/2000/svg" xmlns:xlink="http://www.w3.org/1999/xlink" xml:space="preserve" xmlns:serif="http://www.serif.com/" style="fill-rule:evenodd;clip-rule:evenodd;stroke-linejoin:round;stroke-miterlimit:2;">
    <g transform="matrix(2,0,0,2,540,540)">
        <g id="behance.svg" transform="matrix(1,0,0,1,-256,-256)">
            <g>
                <g>
                    <g>
                        <path d="M256,0C397.29,0 512,114.71 512,256C512,397.29 397.29,512 256,512C114.71,512 0,397.29 0,256C0,114.71 114.71,0 256,0ZM347.775,211.474C273.834,211.474 273.738,285.138 273.738,285.516C273.738,285.516 268.673,359.271 347.775,359.271C347.775,359.271 413.745,363.022 413.745,307.941L379.87,307.941C379.87,307.941 380.993,328.677 348.903,328.677C348.903,328.677 315.028,330.932 315.028,295.177L414.872,295.177C414.872,295.177 425.851,211.474 347.775,211.474ZM230.016,250.419C230.016,250.419 259.386,248.26 259.386,213.729C259.386,179.293 235.364,162.399 204.867,162.399L104.548,162.399L104.548,355.232L204.857,355.232C204.857,355.232 266.135,357.112 266.135,298.276C266.14,298.276 268.769,250.419 230.016,250.419ZM202.051,320.983L148.75,320.983L148.75,269.371L204.862,269.371C204.862,269.371 225.229,269.184 225.133,295.926C225.133,318.451 210.028,320.796 202.051,320.983ZM314.649,269.371C314.649,269.371 318.779,239.718 348.528,239.718C378.369,239.718 377.899,269.371 377.899,269.371L314.649,269.371ZM148.75,196.648L204.862,196.648C204.862,196.648 218.47,196.648 218.47,216.727C218.47,236.806 210.493,239.718 201.389,239.718L148.75,239.718L148.75,196.648ZM306.298,173.753L306.298,197.497L385.876,197.497L385.876,173.753L306.298,173.753Z" style="fill:white;"/>
                    </g>
                </g>
            </g>
        </g>
        <g id="behance.svg1" serif:id="behance.svg">
        </g>
    </g>
</svg>
