<?xml version="1.0" encoding="utf-8"?>
<!-- Generator: Adobe Illustrator 16.0.0, SVG Export Plug-In . SVG Version: 6.00 Build 0)  -->
<!DOCTYPE svg PUBLIC "-//W3C//DTD SVG 1.1//EN" "http://www.w3.org/Graphics/SVG/1.1/DTD/svg11.dtd">
<svg version="1.1" xmlns="http://www.w3.org/2000/svg" xmlns:xlink="http://www.w3.org/1999/xlink" x="0px" y="0px"
	 width="243.666px" height="256.666px" viewBox="0 0 243.666 256.666" enable-background="new 0 0 243.666 256.666"
	 xml:space="preserve">
<g id="Layer_1" display="none">
</g>
<g id="Layer_3">
	<polygon fill="#FFFFFF" points="234.009,0.331 31.38,0.327 7.167,28.302 7.168,110.021 49.97,60.553 190.873,60.556 242.99,0.341 	
		"/>
	<path fill="#FFFFFF" d="M59.3,82.417L7.156,142.661l-0.004,40.673H0.659v73.159h73.158v-73.159h-6.436v-18.161l19.578-22.529
		h32.691l52.123-60.219L59.3,82.417z M51.116,219.935c0,7.655-6.229,13.884-13.884,13.884c-7.656,0-13.885-6.229-13.885-13.884
		c0-7.656,6.229-13.885,13.885-13.885C44.888,206.05,51.116,212.279,51.116,219.935z"/>
</g>
<g id="Layer_4">
</g>
<g id="Layer_2" display="none">
</g>
</svg>
