<?xml version="1.0" encoding="utf-8"?>
<!-- Generator: Adobe Illustrator 16.0.0, SVG Export Plug-In . SVG Version: 6.00 Build 0)  -->
<!DOCTYPE svg PUBLIC "-//W3C//DTD SVG 1.1//EN" "http://www.w3.org/Graphics/SVG/1.1/DTD/svg11.dtd">
<svg version="1.1" id="Layer_1" xmlns="http://www.w3.org/2000/svg" xmlns:xlink="http://www.w3.org/1999/xlink" x="0px" y="0px"
	 width="511.938px" height="511.938px" viewBox="0 0 511.938 511.938" enable-background="new 0 0 511.938 511.938"
	 xml:space="preserve">
<path fill="#FFFFFF" d="M255.969,2.271C115.854,2.271,2.271,115.869,2.271,255.969c0,140.115,113.585,253.698,253.698,253.698
	c140.115,0,253.698-113.583,253.698-253.698C509.667,115.868,396.084,2.271,255.969,2.271z M136.793,156.54h238.351
	c5.349,0,10.161,2.048,13.74,5.389L255.969,275.854L123.092,161.969C126.671,158.608,131.484,156.54,136.793,156.54z M116.769,174
	l96.108,83.541l-96.108,81.67V174z M375.145,355.397H136.793c-5.33,0-10.162-2.067-13.741-5.39l98.474-84.414l34.442,30.146
	l34.442-30.146l98.413,84.414C385.265,353.33,380.453,355.397,375.145,355.397z M395.168,339.21l-96.107-81.67l96.107-83.6V339.21z"
	/>
</svg>
