<svg xmlns="http://www.w3.org/2000/svg" width="511.938" height="511.938"><path fill="#FFF" d="M255.969 2.271C115.854 2.271 2.271 115.869 2.271 255.969c0 140.115 113.585 253.698 253.698 253.698 140.115 0 253.698-113.583 253.698-253.698 0-140.101-113.583-253.698-253.698-253.698zM136.793 156.54h238.351c5.349 0 10.161 2.048 13.74 5.389L255.969 275.854 123.092 161.969a19.944 19.944 0 0 1 13.701-5.429zM116.769 174l96.108 83.541-96.108 81.67V174zm258.376 181.397H136.793a20.146 20.146 0 0 1-13.741-5.39l98.474-84.414 34.442 30.146 34.442-30.146 98.413 84.414a19.991 19.991 0 0 1-13.678 5.39zm20.023-16.187l-96.107-81.67 96.107-83.6v165.27z"/></svg>