<?xml version="1.0" encoding="utf-8"?>
<!-- Generator: Adobe Illustrator 16.0.0, SVG Export Plug-In . SVG Version: 6.00 Build 0)  -->
<!DOCTYPE svg PUBLIC "-//W3C//DTD SVG 1.1//EN" "http://www.w3.org/Graphics/SVG/1.1/DTD/svg11.dtd">
<svg version="1.1" id="Capa_1" xmlns="http://www.w3.org/2000/svg" xmlns:xlink="http://www.w3.org/1999/xlink" x="0px" y="0px"
	 width="512px" height="512px" viewBox="0 0 512 512" enable-background="new 0 0 512 512" xml:space="preserve">
<path fill="#FFFFFF" d="M257,1.5C115.89,1.5,1.5,115.905,1.5,257C1.5,398.109,115.89,512.5,257,512.5
	c141.109,0,255.5-114.391,255.5-255.5C512.5,115.905,398.109,1.5,257,1.5z M413.949,172.929h-17.309
	c-4.533,0-16.311,4.897-16.311,9.075v151.461c0,4.178,11.777,7.6,16.311,7.6h17.309v33.634H301.841v-33.634h22.427V184.128h-3.906
	l-53.98,190.57h-41.768l-53.274-190.57h-4.035v156.936h22.42v33.634h-89.682v-33.634h12.433c4.883,0,9.987-3.422,9.987-7.6V182.004
	c0-4.177-5.104-9.075-9.987-9.075h-12.433v-33.634h116.23l37.961,134.529h1.012l38.325-134.529h120.378V172.929z"/>
</svg>
