<svg xmlns="http://www.w3.org/2000/svg" width="512" height="512"><path fill="#FFF" d="M257 1.5C115.89 1.5 1.5 115.905 1.5 257c0 141.109 114.39 255.5 255.5 255.5 141.109 0 255.5-114.391 255.5-255.5C512.5 115.905 398.109 1.5 257 1.5zm156.949 171.429H396.64c-4.533 0-16.311 4.897-16.311 9.075v151.461c0 4.178 11.777 7.6 16.311 7.6h17.309v33.634H301.841v-33.634h22.427V184.128h-3.906l-53.98 190.57h-41.768l-53.274-190.57h-4.035v156.936h22.42v33.634h-89.682v-33.634h12.433c4.883 0 9.987-3.422 9.987-7.6v-151.46c0-4.177-5.104-9.075-9.987-9.075h-12.433v-33.634h116.23l37.961 134.529h1.012l38.325-134.529h120.378v33.634z"/></svg>