<svg xmlns="http://www.w3.org/2000/svg" width="511.938" height="511.938" viewBox="140.031 50.031 511.938 511.938"><g fill="#FFF"><path d="M396 52.302C255.885 52.302 142.302 165.9 142.302 306c0 140.115 113.584 253.698 253.698 253.698 140.115 0 253.698-113.583 253.698-253.698 0-140.101-113.583-253.698-253.698-253.698zm169.632 355.984c0 12.006-9.81 21.76-21.887 21.76H259.128c-12.104 0-21.888-9.739-21.888-21.76V205.512c0-12.005 9.811-21.746 21.888-21.746h284.617c12.063 0 21.845 9.726 21.845 21.746h.042v202.774z"/><path d="M463.191 263.415H339.229c-7.814.113-14.157 6.554-14.157 14.468h-.142V335.9h.113c0 7.942 6.428 14.37 14.371 14.525h124.087l-.509.198c7.998-.184 14.369-6.554 14.369-14.554h.197v-58.073c.002-8.027-6.581-14.369-14.367-14.581zm-72.443 21.632l-.27 43.704-36.256-21.69 36.541-22.027-.015.013zm21.406 43.704l-.043-.016.043-.027.197-43.661 36.299 21.646-36.497 22.015.001.043z"/></g></svg>