<svg xmlns="http://www.w3.org/2000/svg" width="511.938" height="511.938" viewBox="140.031 50.031 511.938 511.938"><path fill="#FFF" d="M396.003 52c-140.279 0-253.998 113.719-253.998 253.997 0 140.279 113.719 253.997 253.998 253.997C536.281 559.994 650 446.276 650 305.997 650 165.719 536.281 52 396.003 52zm125.282 213.963c.119 2.599.178 5.221.178 7.851 0 80.236-61.07 172.747-172.743 172.747-34.285 0-66.205-10.047-93.059-27.279 4.741.566 9.584.852 14.475.852 28.452 0 54.627-9.703 75.41-25.989-26.574-.494-48.99-18.048-56.715-42.163a60.727 60.727 0 0 0 11.423 1.083c5.528 0 10.903-.739 15.992-2.133-27.769-5.573-48.705-30.109-48.705-59.526 0-.254 0-.512.004-.771a60.288 60.288 0 0 0 27.497 7.603c-16.282-10.885-27.008-29.476-27.008-50.534 0-11.125 2.998-21.561 8.223-30.526 29.946 36.743 74.685 60.912 125.142 63.442a60.571 60.571 0 0 1-1.581-13.836c0-33.524 27.19-60.713 60.714-60.713 17.473 0 33.252 7.372 44.326 19.167a121.533 121.533 0 0 0 38.553-14.729c-4.541 14.185-14.162 26.071-26.699 33.582a121.121 121.121 0 0 0 34.872-9.549c-8.136 12.174-18.427 22.864-30.299 31.421z"/></svg>