<?xml version="1.0" encoding="utf-8"?>
<!-- Generator: Adobe Illustrator 16.0.0, SVG Export Plug-In . SVG Version: 6.00 Build 0)  -->
<!DOCTYPE svg PUBLIC "-//W3C//DTD SVG 1.1//EN" "http://www.w3.org/Graphics/SVG/1.1/DTD/svg11.dtd">
<svg version="1.1" id="Capa_1" xmlns="http://www.w3.org/2000/svg" xmlns:xlink="http://www.w3.org/1999/xlink" x="0px" y="0px"
	 width="511.938px" height="511.938px" viewBox="140.031 50.031 511.938 511.938"
	 enable-background="new 140.031 50.031 511.938 511.938" xml:space="preserve">
<path fill="#FFFFFF" d="M396.003,52c-140.279,0-253.998,113.719-253.998,253.997c0,140.279,113.719,253.997,253.998,253.997
	C536.281,559.994,650,446.276,650,305.997C650,165.719,536.281,52,396.003,52z M521.285,265.963
	c0.119,2.599,0.178,5.221,0.178,7.851c0,80.236-61.07,172.747-172.743,172.747c-34.285,0-66.205-10.047-93.059-27.279
	c4.741,0.566,9.584,0.852,14.475,0.852c28.452,0,54.627-9.703,75.41-25.989c-26.574-0.494-48.99-18.048-56.715-42.163
	c3.704,0.707,7.503,1.083,11.423,1.083c5.528,0,10.903-0.739,15.992-2.133c-27.769-5.573-48.705-30.109-48.705-59.526
	c0-0.254,0-0.512,0.004-0.771c8.182,4.56,17.55,7.29,27.497,7.603c-16.282-10.885-27.008-29.476-27.008-50.534
	c0-11.125,2.998-21.561,8.223-30.526c29.946,36.743,74.685,60.912,125.142,63.442c-1.042-4.446-1.581-9.078-1.581-13.836
	c0-33.524,27.19-60.713,60.714-60.713c17.473,0,33.252,7.372,44.326,19.167c13.823-2.721,26.822-7.77,38.553-14.729
	c-4.541,14.185-14.162,26.071-26.699,33.582c12.278-1.458,23.988-4.722,34.872-9.549
	C543.448,246.716,533.157,257.406,521.285,265.963z"/>
</svg>
